<?xml version="1.0" standalone="no"?>
<!DOCTYPE svg PUBLIC "-//W3C//DTD SVG 20010904//EN"
 "http://www.w3.org/TR/2001/REC-SVG-20010904/DTD/svg10.dtd">
<svg version="1.0" xmlns="http://www.w3.org/2000/svg"
 width="299.000000pt" height="113.000000pt" viewBox="0 0 299.000000 113.000000"
 preserveAspectRatio="xMidYMid meet">

<g transform="translate(0.000000,113.000000) scale(0.100000,-0.100000)"
fill="#000000" stroke="none">
<path d="M1892 1111 c-98 -34 -199 -118 -237 -197 -21 -45 -20 -117 3 -137 31
-29 83 -21 129 18 39 33 81 101 69 112 -13 13 -58 -19 -71 -51 -19 -44 -27
-49 -55 -29 -19 14 -22 22 -18 64 9 86 94 168 186 177 117 11 108 -69 -32
-295 -90 -146 -127 -232 -129 -298 -1 -46 3 -60 18 -71 49 -36 137 8 245 123
44 47 80 82 80 77 0 -5 -26 -61 -57 -124 l-58 -114 -91 -26 c-156 -45 -263
-110 -300 -181 -23 -46 -18 -106 12 -136 22 -22 32 -25 72 -21 113 11 198 85
316 275 24 39 29 42 58 37 64 -11 80 -25 74 -62 -5 -32 -4 -34 20 -28 15 4 33
1 47 -9 12 -9 43 -15 72 -15 97 0 161 62 285 276 l53 91 81 12 c132 18 125 22
109 -51 -18 -85 -21 -227 -5 -255 26 -47 110 -21 159 50 20 28 23 41 15 49 -9
9 -20 2 -47 -26 -29 -31 -38 -36 -50 -26 -18 15 -20 111 -4 210 11 63 14 70
39 75 16 3 36 15 46 26 17 18 16 19 -20 19 -37 0 -38 0 -31 33 4 17 28 91 52
162 56 162 60 183 39 191 -60 23 -186 -95 -334 -314 l-80 -117 -103 -24 c-175
-39 -307 -115 -325 -187 -6 -23 -11 -25 -37 -20 -16 3 -35 6 -42 6 -8 0 5 37
35 98 64 129 211 544 198 558 -2 2 -18 -5 -35 -16 -27 -16 -36 -33 -61 -113
-16 -51 -37 -109 -47 -128 -43 -85 -236 -312 -276 -324 -35 -12 -52 13 -47 71
4 44 18 75 91 195 103 172 137 247 144 315 9 90 -41 114 -155 75z m1013 -148
c-4 -10 -29 -85 -56 -168 -28 -82 -51 -150 -52 -152 -2 -1 -42 -8 -90 -16 -60
-9 -87 -10 -87 -3 1 19 133 204 201 281 61 70 100 97 84 58z m-406 -450 c-141
-233 -166 -263 -220 -263 -44 0 -69 17 -85 57 -37 86 31 154 218 217 40 14 81
26 91 26 17 0 17 -3 -4 -37z m-582 -240 c-35 -60 -144 -170 -191 -192 -70 -34
-116 -24 -116 26 0 51 114 133 253 183 75 27 79 25 54 -17z"/>
<path d="M810 1033 c-59 -23 -182 -159 -290 -322 l-72 -109 -86 -17 c-231 -45
-352 -133 -352 -255 0 -78 52 -130 130 -130 92 0 159 62 268 247 l72 120 95
13 c53 7 98 11 100 8 2 -2 -2 -44 -10 -93 -29 -175 -17 -238 47 -243 29 -2 43
3 73 29 39 35 70 85 57 93 -13 8 -72 -32 -72 -49 0 -29 -29 -15 -40 20 -9 27
-9 57 0 123 16 126 17 128 61 145 48 19 51 37 5 37 l-34 0 29 98 c15 53 42
134 60 180 17 46 28 89 25 97 -5 15 -38 19 -66 8z m-10 -60 c0 -6 -100 -321
-105 -330 -2 -5 -185 -30 -185 -26 0 13 149 220 205 286 59 70 85 90 85 70z
m-390 -430 c0 -5 -33 -62 -74 -128 -102 -166 -161 -202 -227 -136 -80 80 4
182 205 247 76 25 96 28 96 17z"/>
<path d="M1160 1008 c-84 -30 -146 -67 -197 -117 -53 -53 -73 -97 -73 -158 0
-59 20 -83 70 -83 26 0 43 10 83 50 36 36 47 54 40 61 -15 15 -45 -2 -63 -35
-29 -55 -65 -14 -58 65 7 67 45 114 124 151 192 90 364 4 324 -162 -6 -26 -25
-63 -41 -83 -36 -43 -135 -93 -203 -101 -48 -6 -48 -6 -42 20 4 15 37 89 73
165 36 77 63 142 60 145 -4 4 -18 -1 -33 -11 -32 -20 -94 -149 -201 -414 -81
-199 -100 -285 -68 -297 22 -9 85 21 85 41 0 9 -5 13 -10 10 -33 -21 -19 81
29 206 22 57 33 75 50 77 45 7 71 -37 132 -219 45 -137 60 -164 100 -185 38
-19 62 -18 108 6 50 25 63 52 21 43 -76 -15 -107 21 -164 193 -20 61 -46 129
-57 150 -10 21 -15 40 -10 42 25 8 130 77 157 104 18 16 44 51 58 78 52 96 42
188 -27 244 -35 28 -46 31 -120 34 -65 2 -96 -2 -147 -20z"/>
</g>
</svg>
